<svg xmlns="http://www.w3.org/2000/svg" data-name="Layer 1" viewBox="0 0 512 640" x="0px" y="0px"><title>Apple</title><path d="M381.793,187.875c-28.261-22.163-66.689-27.483-114.212-15.818-.132.032-.262.068-.391.107-.486.146-.989.28-1.5.407a90.6,90.6,0,0,1,6.191-19.755,118.887,118.887,0,0,0,75.454-45.768,117.6,117.6,0,0,0,22.7-88.193,8,8,0,0,0-8.968-6.795A116.984,116.984,0,0,0,282.65,57.783,118.907,118.907,0,0,0,262.9,97.341,119.217,119.217,0,0,0,154.62,27.757a8,8,0,0,0-8,8,118.932,118.932,0,0,0,107.458,118.5,117.418,117.418,0,0,0-4.784,18.936,37.349,37.349,0,0,1-4.484-1.029c-.129-.039-.259-.075-.391-.107-47.523-11.666-85.951-6.345-114.212,15.818C99.778,211.736,83.7,253.37,83.7,308.275c0,31.3,6.69,65.07,18.838,95.088,13.267,32.781,32,58.947,54.185,75.67,18.422,13.889,38.942,20.936,60.456,20.936a106.228,106.228,0,0,0,29.092-4.04,39.967,39.967,0,0,1,7.9-.929h3.678a39.967,39.967,0,0,1,7.895.929c32,9.073,62.963,3.213,89.548-16.83,22.182-16.724,40.918-42.923,54.185-75.7,12.148-30.017,18.838-63.8,18.838-95.1C428.305,253.386,412.222,211.736,381.793,187.875ZM295.4,67.445a101.09,101.09,0,0,1,59.647-38.119A101.588,101.588,0,0,1,334.567,97.4a102.86,102.86,0,0,1-59.881,38.56A102.147,102.147,0,0,1,295.4,67.445ZM162.953,44.091a103.23,103.23,0,0,1,94.388,94.388A103.232,103.232,0,0,1,162.953,44.091ZM394.635,397.36c-12.179,30.095-29.118,53.919-48.985,68.9-22.821,17.2-48.324,21.942-75.8,14.077-.185-.053-.371.032-.559-.008A55.066,55.066,0,0,0,257.839,479h-3.678a55.073,55.073,0,0,0-11.452,1.326c-.188.04-.374.021-.559.074-27.476,7.864-52.979,3.1-75.8-14.11-19.867-14.979-36.806-38.819-48.985-68.913-11.395-28.156-17.67-59.8-17.67-89.094,0-49.1,14.342-87.391,40.385-107.814,15.633-12.26,35.284-18.408,58.7-18.408a176.027,176.027,0,0,1,41.635,5.49A53.439,53.439,0,0,0,256,189.757a56.6,56.6,0,0,0,15.582-2.206C314,177.173,347.76,181.518,371.92,200.465c26.043,20.423,40.385,58.71,40.385,107.81C412.305,337.567,406.03,369.205,394.635,397.36Z"/><path d="M204.452,215.409c-64.347,0-73.022,43.486-73.022,86.024a8,8,0,0,0,16,0c0-51.7,14.922-70.024,57.022-70.024a8,8,0,0,0,0-16Z"/><text x="0" y="527" fill="#000000" font-size="5px" font-weight="bold" font-family="'Helvetica Neue', Helvetica, Arial-Unicode, Arial, Sans-serif">Created by Shastry</text><text x="0" y="532" fill="#000000" font-size="5px" font-weight="bold" font-family="'Helvetica Neue', Helvetica, Arial-Unicode, Arial, Sans-serif">from the Noun Project</text></svg>