<svg xmlns="http://www.w3.org/2000/svg" data-name="Layer 1" viewBox="0 0 512 640" x="0px" y="0px"><title>Cherry</title><path d="M381.8,279.407c-22.756-8.065-47.286-6.054-71.13,5.787a261.976,261.976,0,0,0-1.867-26.731c-3.423-28.236-13.21-68.933-39.923-108.046A117.062,117.062,0,0,0,334.2,9.246a8,8,0,0,0-9.892-5.36,115.289,115.289,0,0,0-69.572,56.231,117.04,117.04,0,0,0-13.713,44.928,117.479,117.479,0,0,0-113.38-55.671,8,8,0,0,0-7.054,8.844A117.214,117.214,0,0,0,236.919,162.431c.2,0,.411-.008.617-.009a244.867,244.867,0,0,1-7.3,64.08c-8.233,32.13-23.095,59.595-44.186,81.81-7.085-9.043-9.776-12.25-13.966-12.634-27.871-4.739-53.162.966-73.172,16.511-19.1,14.838-32.506,37.909-38.759,66.672-6.349,28.42-.982,57.116,15.112,80.8,15.763,23.2,40.3,39.518,69.134,45.96a122.8,122.8,0,0,0,26.043,2.839,110.772,110.772,0,0,0,47.115-10.334A101.252,101.252,0,0,0,261.9,458.422a101.884,101.884,0,0,0,55.952,32.924,106.7,106.7,0,0,0,22.178,2.319,115.672,115.672,0,0,0,59.632-17c25.4-15.3,43.517-38.53,51.025-65.414,7.657-27.414,3.549-56.331-11.564-81.422C424.1,304.812,404.283,287.374,381.8,279.407ZM268.8,67.739a99.38,99.38,0,0,1,52.161-45.867,99.883,99.883,0,0,1-9.808,69.067,101.144,101.144,0,0,1-52.325,46.33A100.417,100.417,0,0,1,268.8,67.739Zm-94.711,56.705a100.432,100.432,0,0,1-36.34-59.766,101.484,101.484,0,0,1,102.434,81.7A100.616,100.616,0,0,1,174.092,124.444Zm71.645,106.03a261.532,261.532,0,0,0,7.765-69.882,7.987,7.987,0,0,0,1.884-1.565c25,36.415,34.212,74.445,37.469,100.818a233.4,233.4,0,0,1,1.195,46.578c-1.718-.2-3.449-.422-4.742-.586-8.873-1.127-10.719-1.362-13.392-.024a8.1,8.1,0,0,0-.8.459,102.656,102.656,0,0,0-23.611,21c-10.969-10.517-24.975-18.343-41.065-22.894C226.726,283.176,238.572,258.436,245.737,230.474Zm-34.953,253.16c-19.135,8.944-40.918,11.141-62.944,6.364-24.8-5.54-45.873-19.506-59.339-39.326-13.585-20-18.107-44.259-12.721-68.367,5.456-25.1,16.85-44.973,32.95-57.481,15.985-12.418,36.359-17.115,59.031-13.637,1.775,1.98,4.919,6,6.759,8.349,4.62,5.9,5.582,7.133,7.646,8.166a7.817,7.817,0,0,0,1.05.435c3.914,1.3,6.883-.093,16.723-4.724,2.258-1.062,5.411-2.546,7.291-3.321,14.066,4.167,26.1,11.257,35.184,20.7-16.049,29.5-13.625,66.459,8.677,102.87.123.2.251.4.376.6A85.466,85.466,0,0,1,210.784,483.634ZM391.4,462.965c-21.879,13.181-46.821,17.7-70.229,12.73-23.564-5-43.6-19.339-56.429-40.377-27.337-44.63-20.74-88.189,17.073-114.273,1.546.165,3.725.442,5.476.664,12.108,1.539,16.177,2.056,19.506-.856,2.291-1.862,3.583-4.866,6.964-13.2.933-2.3,2.365-5.832,3.273-7.75,20.122-10.2,40.631-12.073,59.423-5.412,18.939,6.711,35.864,21.783,48.946,43.586l.007.012C451.716,381.753,437.1,435.439,391.4,462.965Z"/><path d="M323.624,413.626c-17.685-11.949-22.214-36.262-10.1-54.2a8,8,0,1,0-13.257-8.958,55.247,55.247,0,0,0-8.672,41.212,54.051,54.051,0,0,0,23.067,35.2,8,8,0,0,0,8.957-13.258Z"/><path d="M156.568,348.314a55.488,55.488,0,0,0-42.209,65.417,8,8,0,1,0,15.661-3.277c-4.374-20.895,9.127-41.772,30.094-46.537a8,8,0,0,0-3.546-15.6Z"/><text x="0" y="527" fill="#000000" font-size="5px" font-weight="bold" font-family="'Helvetica Neue', Helvetica, Arial-Unicode, Arial, Sans-serif">Created by Shastry</text><text x="0" y="532" fill="#000000" font-size="5px" font-weight="bold" font-family="'Helvetica Neue', Helvetica, Arial-Unicode, Arial, Sans-serif">from the Noun Project</text></svg>