<svg xmlns="http://www.w3.org/2000/svg" data-name="Layer 1" viewBox="0 0 512 640" x="0px" y="0px"><title>Grapes</title><path d="M364.584,242.961a56.932,56.932,0,0,0-100.513-51.072c1.314-11.62,4.2-22.372,8.6-31.136a8.045,8.045,0,0,0,.328-.746,117.185,117.185,0,0,0,73.791-48.279A115.889,115.889,0,0,0,365.693,24a8,8,0,0,0-9.231-6.434,115.284,115.284,0,0,0-75.427,48.1,117.052,117.052,0,0,0-18.479,42.25,117.474,117.474,0,0,0-106.5-68.141,8,8,0,0,0-8,8A117.206,117.206,0,0,0,253.788,164.529a117.019,117.019,0,0,0-5.162,21.71,56.935,56.935,0,0,0-96.749,54.379A57.432,57.432,0,0,0,124.1,256.4a56.422,56.422,0,0,0-16.213,39.644,57.048,57.048,0,0,0,44,55.456,56.139,56.139,0,0,0-1.414,12.256,57.047,57.047,0,0,0,48.571,56.339,57.986,57.986,0,0,0-2.612,17.5,56.961,56.961,0,1,0,113.922,0,54.694,54.694,0,0,0-2-14.47,57.031,57.031,0,0,0,54.086-56.888,52.634,52.634,0,0,0-1.982-13.9,57.05,57.05,0,0,0,43.651-55.375A56.425,56.425,0,0,0,364.584,242.961ZM310.69,183.6a40.962,40.962,0,1,1-40.961,40.962A41.008,41.008,0,0,1,310.69,183.6ZM253.4,338.44a41.007,41.007,0,0,1-40.961-40.961,44.414,44.414,0,0,1,3.543-16.76,57.053,57.053,0,0,0,37.66-24.195,38.656,38.656,0,0,1,5.094.362,7.959,7.959,0,0,0,2.994.61c.075,0,.151-.014.226-.016.972.223,1.923.487,2.857.785a57.27,57.27,0,0,0,24.081,18.909,41.872,41.872,0,0,1,5.467,20.305A41.007,41.007,0,0,1,253.4,338.44ZM294.161,74.807a99.382,99.382,0,0,1,56.967-39.744A99.882,99.882,0,0,1,333.653,102.6a101.142,101.142,0,0,1-57.181,40.184A100.421,100.421,0,0,1,294.161,74.807ZM164.4,56.107a101.484,101.484,0,0,1,92.642,92.643A101.483,101.483,0,0,1,164.4,56.107ZM206.518,183.6a40.962,40.962,0,1,1-40.961,40.962A41.008,41.008,0,0,1,206.518,183.6Zm-82.63,112.442a40.992,40.992,0,0,1,34.877-40.485A57.028,57.028,0,0,0,198.929,281a57.72,57.72,0,0,0-2.494,16.48,56.689,56.689,0,0,0,3.389,19.35,40.759,40.759,0,0,1-75.936-20.79Zm42.588,67.712a41.4,41.4,0,0,1,1.531-10.85,57,57,0,0,0,40.4-20.544,56.937,56.937,0,0,0,38.638,21.721,38.8,38.8,0,0,1,1.35,9.673,40.961,40.961,0,1,1-81.922,0Zm86.92,114.8a41.008,41.008,0,0,1-40.961-40.962,39.051,39.051,0,0,1,3.842-17.568,57.07,57.07,0,0,0,39.447-26.109,57.189,57.189,0,0,0,35.125,27.366,42.277,42.277,0,0,1,3.508,16.311A41.008,41.008,0,0,1,253.4,478.553Zm52.086-71.359a41.007,41.007,0,0,1-40.961-40.961,37.059,37.059,0,0,1,2.4-13.429,57.125,57.125,0,0,0,33.511-23.244A57.822,57.822,0,0,0,344.2,353.831a38.333,38.333,0,0,1,2.243,12.4A41.007,41.007,0,0,1,305.482,407.194Zm41.669-69.275a41.562,41.562,0,0,1-38.494-26.637,56.858,56.858,0,0,0,1.7-13.8,55.064,55.064,0,0,0-1.772-13.8q.378-1.089.834-2.188c.424.01.845.033,1.271.033a56.921,56.921,0,0,0,46.449-24.051,40.829,40.829,0,0,1-9.988,80.45Z"/><text x="0" y="527" fill="#000000" font-size="5px" font-weight="bold" font-family="'Helvetica Neue', Helvetica, Arial-Unicode, Arial, Sans-serif">Created by Shastry</text><text x="0" y="532" fill="#000000" font-size="5px" font-weight="bold" font-family="'Helvetica Neue', Helvetica, Arial-Unicode, Arial, Sans-serif">from the Noun Project</text></svg>