<svg xmlns="http://www.w3.org/2000/svg" data-name="Layer 1" viewBox="0 0 512 640" x="0px" y="0px"><title>Lemon2</title><path d="M218.636,206.059c-26.943,7.878-46.523,31.635-49.884,60.524a8,8,0,1,0,15.893,1.849c2.617-22.491,17.721-40.946,38.481-47.015a8,8,0,0,0-4.49-15.358Z"/><path d="M264.952,153.944A119.77,119.77,0,0,0,332.843,16.132a8,8,0,0,0-9.584-5.894,117.966,117.966,0,0,0-74.238,53.549,119.569,119.569,0,0,0-17.067,49.2A120.222,120.222,0,0,0,122.5,42.246a8,8,0,0,0-8,8,120.021,120.021,0,0,0,87.55,115.629c-51.337,24.369-87.55,82.415-87.55,149.986,0,36.97,11.167,73.16,31.444,101.9,19,26.931,45.165,46.312,74.145,55.047a36.689,36.689,0,0,0,71.816,0c28.98-8.735,55.147-28.116,74.145-55.047,20.277-28.744,31.444-64.934,31.444-101.9C397.5,229.844,338.818,159.259,264.952,153.944Zm-2.3-81.775A102.069,102.069,0,0,1,318.942,28a102.567,102.567,0,0,1-13.911,70.5,103.872,103.872,0,0,1-56.485,44.633A103.131,103.131,0,0,1,262.649,72.169ZM130.833,58.576a104.234,104.234,0,0,1,95.394,95.393A104.234,104.234,0,0,1,130.833,58.576ZM352.979,408.542c-17.96,25.46-42.942,43.3-70.342,50.241a8,8,0,0,0-6.033,7.543c-.289,10.832-9.531,19.644-20.6,19.644s-20.315-8.812-20.6-19.644a8,8,0,0,0-6.033-7.543c-27.4-6.938-52.382-24.781-70.342-50.241-18.39-26.07-28.518-58.984-28.518-92.681,0-80.643,56.3-146.251,125.5-146.251s125.5,65.608,125.5,146.251C381.5,349.558,371.369,382.472,352.979,408.542Z"/><text x="0" y="527" fill="#000000" font-size="5px" font-weight="bold" font-family="'Helvetica Neue', Helvetica, Arial-Unicode, Arial, Sans-serif">Created by Shastry</text><text x="0" y="532" fill="#000000" font-size="5px" font-weight="bold" font-family="'Helvetica Neue', Helvetica, Arial-Unicode, Arial, Sans-serif">from the Noun Project</text></svg>