<svg xmlns="http://www.w3.org/2000/svg" data-name="Layer 1" viewBox="0 0 512 640" x="0px" y="0px"><title>Orange</title><path d="M260.822,182.987c5.543-39.91,41.875-68.123,81.307-62.982A8,8,0,1,0,344.2,104.14a87.385,87.385,0,0,0-57.385,12.387l.975-24.381c0-.045,0-.092,0-.138a69.2,69.2,0,0,0-18.445-48.821,68.315,68.315,0,0,0-47.346-22L184.762,19.7a13.417,13.417,0,0,0-10.45,2.89,14.266,14.266,0,0,0-5.158,10.932l-1.5,37.605c0,.046,0,.093,0,.139a69.208,69.208,0,0,0,18.446,48.821,68.31,68.31,0,0,0,47.346,22l25.821,1.033a89.948,89.948,0,0,0-14.395,38.421c-.016.12-.029.24-.039.361l-.12,1.42c-80.086,5.805-143.472,72.813-143.472,154.354,0,85.339,69.428,154.768,154.768,154.768s154.768-69.429,154.768-154.768C410.768,253.947,343.938,185.544,260.822,182.987Zm-62.985-73.762A53.285,53.285,0,0,1,183.64,71.7l1.438-35.97,36.24,1.449A52.387,52.387,0,0,1,257.6,54.051a53.288,53.288,0,0,1,14.2,37.528l-1.439,35.969L234.12,126.1A52.38,52.38,0,0,1,197.837,109.225ZM256,476.441c-76.517,0-138.768-62.251-138.768-138.768S179.483,198.9,256,198.9s138.768,62.252,138.768,138.769S332.517,476.441,256,476.441Z"/><path d="M260.715,244.844a8,8,0,1,0,0,16,72.2,72.2,0,0,1,72.113,72.114,8,8,0,1,0,16,0A88.213,88.213,0,0,0,260.715,244.844Z"/><text x="0" y="527" fill="#000000" font-size="5px" font-weight="bold" font-family="'Helvetica Neue', Helvetica, Arial-Unicode, Arial, Sans-serif">Created by Shastry</text><text x="0" y="532" fill="#000000" font-size="5px" font-weight="bold" font-family="'Helvetica Neue', Helvetica, Arial-Unicode, Arial, Sans-serif">from the Noun Project</text></svg>