<svg xmlns="http://www.w3.org/2000/svg" data-name="Layer 1" viewBox="0 0 512 640" x="0px" y="0px"><title>Pear</title><path d="M346.162,48.952a115.638,115.638,0,0,0-68.6,2.074,107.668,107.668,0,0,1,23.452-20.068,8.036,8.036,0,0,0-8.592-13.582C259.229,38.506,239.546,72,236.421,111H223.062a61.492,61.492,0,0,0-57.919,40.177l-23.612,64.837-31.313,62.1a149.125,149.125,0,0,0,28.036,172.339l2.764,2.769a145.808,145.808,0,0,0,205.919,0l2.765-2.763h0a149.615,149.615,0,0,0,28.036-172.328c-15.367-30.735-29-58.478-30.745-62.036l-23.661-65.013C314.279,127.16,291.276,111,266.092,111h-13.6a112.3,112.3,0,0,1,7.694-31.9,116.447,116.447,0,0,0,95.952,50.381,115.53,115.53,0,0,0,57.332-15.189,7.987,7.987,0,0,0,2.992-10.9A115.4,115.4,0,0,0,346.162,48.952Zm-37.829,107.7,23.773,65.28a8.709,8.709,0,0,0,.334.806c.144.293,14.578,29.719,30.973,62.509a133.623,133.623,0,0,1-25.024,153.893l-2.765,2.767a129.808,129.808,0,0,1-183.293,0l-2.764-2.763a133.12,133.12,0,0,1-25.051-153.833l31.513-62.473a8.249,8.249,0,0,0,.374-.864l23.763-65.211c6.566-17.824,23.179-29.611,41.559-29.611.349,0,.7-.081,1.049-.073.065,0,.13-.083.195-.083h20.9l.154,0,.039,0h22.033C284.665,127,301.654,139.006,308.333,156.655ZM273.259,69.991a100.686,100.686,0,0,1,124.87,34.25A100.421,100.421,0,0,1,273.259,69.991Z"/><text x="0" y="527" fill="#000000" font-size="5px" font-weight="bold" font-family="'Helvetica Neue', Helvetica, Arial-Unicode, Arial, Sans-serif">Created by Shastry</text><text x="0" y="532" fill="#000000" font-size="5px" font-weight="bold" font-family="'Helvetica Neue', Helvetica, Arial-Unicode, Arial, Sans-serif">from the Noun Project</text></svg>